HIERARCHY
ROOT root
{
	OFFSET 0.000000 0.000000 0.000000
	CHANNELS 6 Xposition Yposition Zposition Zrotation Yrotation Xrotation
	JOINT lhip
	{
		OFFSET 0.058581 -0.082280 -0.017664
		CHANNELS 3 Zrotation Yrotation Xrotation
		JOINT lknee
		{
			OFFSET 0.043451 -0.386469 0.008037
			CHANNELS 3 Zrotation Yrotation Xrotation
			JOINT lankle
			{
				OFFSET -0.014790 -0.426874 -0.037428
				CHANNELS 3 Zrotation Yrotation Xrotation
				JOINT ltoe
				{
					OFFSET 0.041054 -0.060286 0.122042
					CHANNELS 3 Zrotation Yrotation Xrotation
					End Site
					{
						OFFSET 0.000000 0.000000 0.000000
					}
				}
			}
		}
	}
	JOINT rhip
	{
		OFFSET -0.060310 -0.090513 -0.013543
		CHANNELS 3 Zrotation Yrotation Xrotation
		JOINT rknee
		{
			OFFSET -0.043257 -0.383688 -0.004843
			CHANNELS 3 Zrotation Yrotation Xrotation
			JOINT rankle
			{
				OFFSET 0.019056 -0.420046 -0.034562
				CHANNELS 3 Zrotation Yrotation Xrotation
				JOINT rtoe
				{
					OFFSET -0.034840 -0.062106 0.130323
					CHANNELS 3 Zrotation Yrotation Xrotation
					End Site
					{
						OFFSET 0.000000 0.000000 0.000000
					}
				}
			}
		}
	}
	JOINT lowerback
	{
		OFFSET 0.004439 0.124404 -0.038385
		CHANNELS 3 Zrotation Yrotation Xrotation
		JOINT upperback
		{
			OFFSET 0.004488 0.137956 0.026820
			CHANNELS 3 Zrotation Yrotation Xrotation
			JOINT chest
			{
				OFFSET -0.002265 0.056032 0.002855
				CHANNELS 3 Zrotation Yrotation Xrotation
				JOINT lowerneck
				{
					OFFSET -0.013390 0.211636 -0.033468
					CHANNELS 3 Zrotation Yrotation Xrotation
					JOINT upperneck
					{
						OFFSET 0.010113 0.088937 0.050410
						CHANNELS 3 Zrotation Yrotation Xrotation
						End Site
						{
							OFFSET 0.000000 0.000000 0.000000
						}
					}
				}
				JOINT lclavicle
				{
					OFFSET 0.071702 0.114000 -0.018898
					CHANNELS 3 Zrotation Yrotation Xrotation
					JOINT lshoulder
					{
						OFFSET 0.122921 0.045205 -0.019046
						CHANNELS 3 Zrotation Yrotation Xrotation
						JOINT lelbow
						{
							OFFSET 0.255332 -0.015649 -0.022946
							CHANNELS 3 Zrotation Yrotation Xrotation
							JOINT lwrist
							{
								OFFSET 0.265709 0.012698 -0.007375
								CHANNELS 3 Zrotation Yrotation Xrotation
								End Site
								{
									OFFSET 0.000000 0.000000 0.000000
								}
							}
						}
					}
				}
				JOINT rclavicle
				{
					OFFSET -0.082954 0.112472 -0.023707
					CHANNELS 3 Zrotation Yrotation Xrotation
					JOINT rshoulder
					{
						OFFSET -0.113228 0.046853 -0.008472
						CHANNELS 3 Zrotation Yrotation Xrotation
						JOINT relbow
						{
							OFFSET -0.260127 -0.014369 -0.031269
							CHANNELS 3 Zrotation Yrotation Xrotation
							JOINT rwrist
							{
								OFFSET -0.269108 0.006794 -0.006027
								CHANNELS 3 Zrotation Yrotation Xrotation
								End Site
								{
									OFFSET 0.000000 0.000000 0.000000
								}
							}
						}
					}
				}
			}
		}
	}
}
MOTION
Frames: 13
Frame Time: 0.033333
0.157588 2.567132 0.912991 -175.202353 2.660577 81.131307 9.084158 7.863489 -25.481312 -11.130210 4.050217 54.104016 4.230096 9.090950 -25.732299 0.000000 -0.000000 0.000000 -8.188266 -1.347153 -37.790885 4.600883 5.659153 51.368201 11.887496 2.776886 -10.062553 0.000000 -0.000000 0.000000 -2.483936 0.674920 38.064203 -1.598290 1.303697 0.465399 0.462366 -0.225259 -1.736985 -17.406572 29.122723 -11.237496 -5.349791 28.139475 1.450888 -22.457371 -10.757076 -4.001638 -23.029728 -12.112518 5.213413 20.399283 -71.252708 -16.353043 15.796130 -11.262499 -16.952400 31.835185 7.341359 5.412198 39.732415 0.317187 10.635124 -20.528259 49.903726 -30.205756 3.203203 14.686567 -18.649232 
0.168895 2.589204 0.924629 -171.257878 2.796240 82.509961 9.110605 6.843611 -25.299644 -11.748521 2.001616 52.581965 3.246268 8.237088 -24.447150 0.000000 -0.000000 0.000000 -8.332348 0.736181 -37.541120 5.350258 9.343480 48.409489 15.518948 6.526107 -5.139072 0.000000 -0.000000 0.000000 -2.468681 -0.478355 38.800376 -1.230559 0.595163 -0.480653 0.549740 -0.654754 -1.723643 -18.045935 28.972184 -12.003243 -5.625149 27.782292 1.244525 -22.292119 -11.569244 -4.662473 -21.604820 -14.222318 5.627631 29.239663 -74.372767 -22.633000 16.667663 -13.081569 -15.187535 31.660897 7.222937 4.763494 39.669740 -0.561593 11.491588 -18.517899 49.551198 -28.138061 1.363013 14.945649 -20.604504 
0.182040 2.609988 0.935669 -166.416239 2.525142 84.152175 9.037843 5.513437 -26.235433 -12.534081 0.276443 51.733132 2.351565 6.961993 -22.074902 0.000000 -0.000000 0.000000 -9.170452 1.364007 -37.124124 5.559816 9.366409 48.071116 16.716976 6.985918 -0.673525 0.000000 -0.000000 0.000000 -2.411998 -1.874741 39.485424 -0.854791 -0.433515 -1.074563 0.480955 -1.098808 -2.032693 -18.824862 28.405274 -12.958192 -6.034344 27.331541 0.720467 -22.001354 -11.851104 -5.166563 -21.165857 -15.945646 6.213348 38.939263 -76.748630 -30.070587 17.769630 -14.016899 -13.106399 31.100292 7.091525 4.375951 40.106518 -1.006695 12.539716 -16.922294 49.478079 -26.700484 0.352610 15.254792 -21.851699 
0.196860 2.630835 0.943339 -161.297754 1.841482 85.659466 9.042767 4.484337 -27.100557 -13.882903 -1.583767 50.745065 1.554606 5.727849 -20.050632 0.000000 -0.000000 0.000000 -9.876915 1.030875 -35.450564 5.348720 8.993967 47.867533 14.169007 5.722991 -3.107791 0.000000 -0.000000 0.000000 -1.858556 -2.941691 39.813625 -0.873958 -1.736757 -1.753579 0.161416 -1.610998 -2.054414 -19.536547 27.121147 -13.667077 -5.499538 27.329531 0.467630 -21.494091 -12.765784 -4.968392 -20.358205 -16.694116 6.077454 45.977669 -78.895654 -34.516677 19.598762 -14.261934 -13.333740 30.446245 7.591697 4.436457 40.917989 -2.328442 12.763865 -15.589782 50.330011 -24.408922 0.092241 15.280599 -23.340991 
0.211946 2.652618 0.946996 -156.411401 0.629652 87.021922 8.958856 4.039526 -27.341339 -15.053075 -3.287672 49.069120 0.785414 3.846561 -19.569370 0.000000 -0.000000 0.000000 -10.189938 -0.524350 -33.325711 4.472268 8.103715 46.868090 11.743291 3.736192 -7.767203 0.000000 -0.000000 0.000000 -1.449914 -3.505344 39.672423 -1.083482 -2.892097 -2.211597 -0.042279 -2.082597 -2.034139 -19.889163 26.329701 -14.256385 -5.079712 27.388486 0.985164 -21.271688 -13.201561 -4.880345 -20.404239 -17.128425 6.167571 49.583501 -80.834002 -36.841552 19.241564 -14.776636 -13.447716 29.772144 7.720657 4.310868 41.327225 -3.613845 13.051439 -13.652356 51.374198 -22.271734 0.196547 15.546958 -23.523217 
0.227859 2.673689 0.948196 -152.840886 -0.651024 88.093336 9.513748 4.251641 -27.516929 -16.277055 -4.309656 47.627175 -0.504662 1.744728 -18.986520 0.000000 -0.000000 0.000000 -10.365321 -1.736451 -32.269548 3.851834 6.988655 46.882643 10.163973 2.803500 -11.927742 0.000000 -0.000000 0.000000 -1.281107 -3.206560 39.447575 -1.474227 -3.046173 -2.602034 -0.256114 -2.458736 -1.635651 -19.928960 25.903889 -14.867614 -5.024785 26.511398 1.706544 -21.280652 -13.262872 -5.085478 -20.789599 -17.732463 7.034233 45.790740 -82.053444 -32.834917 18.140560 -15.203964 -13.246812 29.334529 7.768768 3.770766 41.074621 -4.528113 13.611505 -11.419451 51.955514 -20.284366 0.274390 15.827393 -23.337631 
0.242917 2.692285 0.949543 -150.322935 -1.638050 88.600597 10.379259 4.636455 -27.115590 -16.240384 -4.143796 46.004071 -2.163234 -0.024023 -18.443928 0.000000 -0.000000 0.000000 -10.613901 -2.667898 -32.417711 3.428634 4.128898 48.354811 9.814369 1.601222 -13.285609 0.000000 -0.000000 0.000000 -1.136381 -2.969755 39.849703 -2.138087 -2.529096 -1.976874 -0.513483 -2.386733 -2.222003 -20.190178 25.061008 -14.988118 -5.154442 26.007576 0.944123 -21.808546 -13.459564 -5.136139 -20.664337 -17.497450 7.871734 36.366391 -82.689597 -23.389468 16.934463 -15.660517 -12.910207 29.060752 8.306839 3.760217 40.328049 -5.100056 13.778283 -9.789765 52.385365 -19.196644 0.708587 15.915729 -23.057021 
0.256363 2.709793 0.949947 -147.531574 -1.993135 88.814771 11.066785 5.614512 -26.793638 -15.654435 -4.100504 44.367646 -3.643802 0.223271 -18.390227 0.000000 -0.000000 0.000000 -10.528786 -3.161070 -31.541862 3.935249 3.329124 48.932649 8.762488 1.324319 -15.502519 0.000000 -0.000000 0.000000 -0.261790 -3.195535 40.160288 -2.637128 -2.202509 -0.946780 -0.919057 -1.961661 -2.789666 -20.419267 24.281895 -15.524771 -5.003073 25.436364 0.891970 -23.220661 -13.995805 -5.542982 -20.105790 -16.040416 9.032780 21.708659 -82.582915 -9.979462 15.630574 -15.885901 -12.430061 29.223511 9.323328 4.153258 38.734153 -5.749705 13.332622 -9.051416 52.809535 -19.395827 1.571663 15.811940 -22.067192 
0.268426 2.725388 0.949392 -144.747045 -2.782424 89.607631 10.990263 6.140944 -26.867547 -15.045338 -3.333046 41.958187 -3.907133 0.787311 -19.355831 0.000000 -0.000000 0.000000 -10.744960 -4.359952 -31.554616 4.053334 1.065071 49.690850 7.989956 -0.152991 -17.658914 0.000000 -0.000000 0.000000 0.191342 -2.881676 39.897170 -3.045244 -1.940406 -0.701174 -1.097448 -2.134647 -3.204463 -19.832731 24.093468 -15.514401 -5.026556 25.497880 1.344908 -24.199081 -14.042405 -4.024488 -20.328569 -14.265489 9.083281 9.186720 -81.068322 2.246413 13.721240 -16.144660 -12.937320 29.416809 9.863544 4.834123 37.278216 -5.494106 12.702778 -8.764071 51.927049 -19.184663 2.629779 15.930695 -20.899188 
0.278950 2.739384 0.948717 -142.185229 -3.500586 90.411909 10.872828 6.185668 -26.692150 -14.081480 -1.904197 39.003609 -3.486318 2.445819 -20.249055 0.000000 -0.000000 0.000000 -10.433505 -4.797796 -31.777276 4.018488 0.541288 50.436333 7.230318 -1.858663 -19.305559 0.000000 -0.000000 0.000000 0.155670 -2.674620 39.546364 -3.304626 -1.709033 -1.041300 -1.147198 -1.980944 -3.092932 -19.396082 23.537647 -15.533849 -5.102674 26.464991 1.149783 -25.526780 -13.426953 -3.634363 -20.585549 -12.429348 9.751402 -2.383331 -78.232504 12.471328 14.728374 -15.126242 -12.410726 29.513454 10.074824 4.794322 36.108283 -5.125675 12.438401 -10.103768 50.708496 -20.334754 3.686876 15.639739 -18.514197 
0.287353 2.752108 0.947689 -139.219532 -4.123933 90.759245 10.466028 6.374512 -26.731637 -12.716209 0.230268 36.926629 -2.741920 4.973187 -19.580669 0.000000 -0.000000 0.000000 -10.690516 -4.906116 -31.935389 3.970500 -0.789417 51.842266 6.829533 -3.258843 -20.276320 0.000000 -0.000000 0.000000 0.371184 -2.823966 39.406828 -3.544268 -1.561938 -1.199667 -1.487835 -1.785850 -2.855029 -18.955053 23.157116 -15.489835 -5.378199 26.812520 0.440712 -26.505332 -12.707698 -3.206697 -20.894094 -10.566161 10.469732 -8.172869 -74.990455 16.796533 14.109866 -14.776519 -12.183629 29.753188 9.866460 4.515830 35.326395 -4.773757 11.886325 -12.312119 49.522188 -23.503145 4.263550 15.186962 -17.056252 
0.294609 2.763085 0.946670 -136.122899 -4.831396 91.125037 9.817489 6.468526 -27.096786 -10.883163 3.100544 35.361819 -2.538042 7.524638 -18.701781 0.000000 -0.000000 0.000000 -11.026597 -5.525386 -32.034400 3.846307 -2.039174 52.994904 6.314405 -4.539732 -21.456620 0.000000 -0.000000 0.000000 0.598705 -2.715630 39.025130 -3.744036 -1.498873 -1.004555 -1.814268 -1.875169 -2.766868 -18.525577 22.923934 -15.717873 -5.640005 27.046135 0.286910 -27.740590 -12.073594 -2.594471 -20.833878 -8.697580 10.459666 -10.315309 -71.199818 18.242425 12.715382 -15.027587 -11.294657 30.318431 9.460207 4.569075 34.687804 -4.444547 10.878452 -15.217863 48.443784 -27.208489 4.459580 14.917705 -17.235297 
0.299866 2.773617 0.945723 -133.286232 -5.334576 91.278577 9.487591 6.952734 -27.256280 -9.170659 6.012132 34.190607 -1.024116 9.862491 -18.626527 0.000000 -0.000000 0.000000 -11.048997 -6.214106 -31.370171 3.597218 -3.097468 53.195497 5.751988 -5.831983 -22.780062 0.000000 -0.000000 0.000000 0.741366 -2.509683 38.708856 -4.007676 -1.309088 -0.780177 -2.081039 -1.798707 -2.700863 -18.073483 22.499134 -15.850392 -5.562111 26.972433 0.123649 -29.170989 -11.285544 -2.413311 -20.528493 -7.033176 10.421875 -11.667625 -67.038014 18.912615 12.461511 -14.626943 -10.461080 31.001088 9.014004 4.763001 33.967860 -4.031982 9.814909 -17.548866 47.335683 -30.291668 3.773321 14.675298 -17.673208 
